<svg width="246" height="167" viewBox="0 0 246 167" fill="none" xmlns="http://www.w3.org/2000/svg">
<path d="M193.432 39.6758C201.184 39.6758 208.139 41.2147 214.296 44.293C218.461 46.3758 222.052 49.242 225.069 52.8906V40.7012H245.42V118.171C245.42 134.702 241.202 146.844 232.766 154.597C224.329 162.463 212.129 166.397 196.168 166.397C187.731 166.397 179.466 165.257 171.371 162.977C163.39 160.81 156.835 157.619 151.704 153.4L161.281 137.324C165.272 140.63 170.288 143.253 176.33 145.191C182.486 147.244 188.7 148.269 194.971 148.27C205.004 148.27 212.358 145.932 217.032 141.258C221.706 136.697 224.044 129.8 224.044 120.565V115.745C221.248 118.862 217.999 121.381 214.296 123.302C208.139 126.38 201.184 127.919 193.432 127.919C184.767 127.919 176.901 126.095 169.832 122.446C162.877 118.684 157.348 113.496 153.243 106.884C149.253 100.271 147.258 92.5186 147.258 83.626C147.258 74.8473 149.253 67.1516 153.243 60.5391C157.348 53.9265 162.877 48.7958 169.832 45.1475C176.9 41.4993 184.767 39.6758 193.432 39.6758ZM196.682 57.8027C191.323 57.8027 186.478 58.8858 182.146 61.0518C177.927 63.1039 174.621 66.1259 172.227 70.1162C169.946 73.9925 168.806 78.4956 168.806 83.626C168.806 88.7564 169.946 93.3173 172.227 97.3076C174.621 101.184 177.927 104.262 182.146 106.542C186.478 108.708 191.323 109.791 196.682 109.791C202.04 109.791 206.829 108.708 211.047 106.542C215.265 104.262 218.514 101.184 220.794 97.3076C223.188 93.3173 224.386 88.7564 224.386 83.626C224.386 78.4956 223.188 73.9925 220.794 70.1162C218.514 66.1259 215.265 63.1039 211.047 61.0518C206.829 58.8856 202.04 57.8028 196.682 57.8027Z" fill="white"/>
<path d="M124.16 132.023V40.7014H145.537V132.023H124.16ZM134.934 25.6522C130.944 25.6522 127.638 24.3981 125.016 21.8898C122.507 19.3816 121.253 16.3604 121.253 12.8261C121.253 9.17777 122.507 6.15652 125.016 3.76231C127.638 1.2541 130.944 0 134.934 0C138.925 0 142.174 1.1971 144.682 3.5913C147.304 5.87149 148.615 8.77874 148.615 12.313C148.615 16.0753 147.361 19.2676 144.853 21.8898C142.345 24.3981 139.039 25.6522 134.934 25.6522Z" fill="white"/>
<path d="M129.8 132.023H106.542L94.6436 104.318H34.7705L22.916 132.023H0L53.8691 12.3135H75.7598L129.8 132.023ZM42.2344 86.875H87.1523L64.6514 34.4844L42.2344 86.875Z" fill="white"/>
</svg>
